/* XPM */
static char * dutch_wick_0_3_xpm[] = {
"32 32 199 2",
"  	c None",
". 	c #272700",
"+ 	c #101000",
"@ 	c #080800",
"# 	c #010100",
"$ 	c #020200",
"% 	c #1A1A00",
"& 	c #1C1C00",
"* 	c #000000",
"= 	c #721400",
"- 	c #200300",
"; 	c #070700",
"> 	c #141400",
", 	c #0E0E00",
"' 	c #151500",
") 	c #222200",
"! 	c #434300",
"~ 	c #7B3E00",
"{ 	c #BC0200",
"] 	c #CD0000",
"^ 	c #940000",
"/ 	c #310000",
"( 	c #2B2B00",
"_ 	c #120100",
": 	c #410000",
"< 	c #840000",
"[ 	c #C80000",
"} 	c #CC0000",
"| 	c #7D0000",
"1 	c #0C0000",
"2 	c #190000",
"3 	c #7F0000",
"4 	c #C90000",
"5 	c #B50000",
"6 	c #2B0000",
"7 	c #121200",
"8 	c #200000",
"9 	c #9E0000",
"0 	c #C70000",
"a 	c #600C00",
"b 	c #020000",
"c 	c #5C0000",
"d 	c #C60000",
"e 	c #B00400",
"f 	c #626200",
"g 	c #767205",
"h 	c #323000",
"i 	c #1F0000",
"j 	c #890C00",
"k 	c #9F9D30",
"l 	c #DCDAB7",
"m 	c #FFF612",
"n 	c #EBE78E",
"o 	c #767103",
"p 	c #1B1A00",
"q 	c #090700",
"r 	c #262600",
"s 	c #85834E",
"t 	c #36352F",
"u 	c #D3CE4F",
"v 	c #323232",
"w 	c #E5DD2E",
"x 	c #FCF300",
"y 	c #B9B200",
"z 	c #5C5800",
"A 	c #0B0A00",
"B 	c #181800",
"C 	c #C38300",
"D 	c #C38200",
"E 	c #997500",
"F 	c #C9B32D",
"G 	c #D0BA38",
"H 	c #D1C83B",
"I 	c #292825",
"J 	c #E2DA2F",
"K 	c #FFF600",
"L 	c #F2E900",
"M 	c #A09A00",
"N 	c #423F00",
"O 	c #020100",
"P 	c #030300",
"Q 	c #383800",
"R 	c #FF9500",
"S 	c #FFA200",
"T 	c #FFEC00",
"U 	c #E2DA00",
"V 	c #656200",
"W 	c #343400",
"X 	c #4C4C00",
"Y 	c #686800",
"Z 	c #A7A300",
"` 	c #DFD800",
" .	c #FBF300",
"..	c #D5CE00",
"+.	c #EC8F00",
"@.	c #FB9400",
"#.	c #FFAF00",
"$.	c #ABA700",
"%.	c #6A6A00",
"&.	c #B1AD00",
"*.	c #F0E800",
"=.	c #CF8600",
"-.	c #D57D00",
";.	c #DA8000",
">.	c #E78700",
",.	c #F58F00",
"'.	c #FE9400",
").	c #FFDD00",
"!.	c #FEF500",
"~.	c #535100",
"{.	c #858000",
"].	c #C3BC00",
"^.	c #B3AE00",
"/.	c #CD8500",
"(.	c #C37300",
"_.	c #CA7700",
":.	c #FFCE00",
"<.	c #010000",
"[.	c #1F1D00",
"}.	c #958F00",
"|.	c #FBF200",
"1.	c #C4BE00",
"2.	c #674C00",
"3.	c #F38F00",
"4.	c #FFA800",
"5.	c #FFD300",
"6.	c #E0D800",
"7.	c #1C1B00",
"8.	c #2B2900",
"9.	c #BDB600",
"0.	c #CDC700",
"a.	c #313100",
"b.	c #050200",
"c.	c #928800",
"d.	c #FFF100",
"e.	c #FDF400",
"f.	c #D6CE00",
"g.	c #ACA500",
"h.	c #868100",
"i.	c #5A5600",
"j.	c #0D0C00",
"k.	c #7B7600",
"l.	c #D2CC00",
"m.	c #868200",
"n.	c #CAC200",
"o.	c #5F5B00",
"p.	c #111000",
"q.	c #7D7800",
"r.	c #E3DB00",
"s.	c #8F8900",
"t.	c #F0E700",
"u.	c #545100",
"v.	c #B2AC00",
"w.	c #4D4B00",
"x.	c #9D9700",
"y.	c #272500",
"z.	c #3C3900",
"A.	c #353300",
"B.	c #595700",
"C.	c #746F00",
"D.	c #CFC700",
"E.	c #C5BE00",
"F.	c #121100",
"G.	c #5A5900",
"H.	c #F9F000",
"I.	c #B4AD00",
"J.	c #575300",
"K.	c #040300",
"L.	c #E9E100",
"M.	c #726D00",
"N.	c #070600",
"O.	c #ECE400",
"P.	c #DDD500",
"Q.	c #4B4800",
"R.	c #383600",
"S.	c #767100",
"T.	c #555400",
"U.	c #BDB800",
"V.	c #565200",
"W.	c #191800",
"X.	c #F4EB00",
"Y.	c #2D2B00",
"Z.	c #252300",
"`.	c #9C9600",
" +	c #545300",
".+	c #E7DF00",
"++	c #585400",
"@+	c #F6ED00",
"#+	c #F8EF00",
"$+	c #5B5900",
"%+	c #CCC600",
"&+	c #FAF100",
"*+	c #4D4A00",
"=+	c #464300",
"-+	c #CBC500",
";+	c #CEC800",
">+	c #B8B100",
",+	c #E3DA00",
"'+	c #D0CA00",
"                                . + @ # $ %                     ",
"                            & $ * * * * * %                     ",
"                        = - * * * * * * ;                       ",
"          > , ' ) ! ~ { ] ] ^ / * * * * (                       ",
"          * * * * * _ : < [ ] } | 1 * *                         ",
"          & * * * * * * * 2 3 4 ] 5 6 @                         ",
"            7 * * * * * * * * 8 9 ] 0 a                         ",
"              > * * * * * * * * b c d e                         ",
"              f g h * * * * * * * * i j                         ",
"              k l m n o p * * * * * * q r                       ",
"              s t u v w x y z A * * * * * $ B                   ",
"        C D E F G H I J K K K L M N O * * * P Q                 ",
"        R R R R R S T K K K K K K K U V W X Y Z `  .K ..        ",
"        +.@.R R R R #.K K K K K K K K $.%.&.*.K K K K  .        ",
"          =.-.;.>.,.'.).K K K K K K !.~.{.].x K K K K K ^.      ",
"          /.-.(._.;.,.:.K K K K K K ].<.* * [.}.|.K K K 1.      ",
"          2.3.R R 4.5.K K K K K K 6.7.* * * * * 8.9.K K 0.      ",
"        a.* b.c.d.e.x K e.f.g.h.i.j.* * * * * * * O k.K l.      ",
"        ( * * m.K K n.o.p.* * * * * * * * * * * * * * q.r.      ",
"          r * s.t.u.* * * * * * * * * * * * * * * * * <.v.      ",
"          w.* x.y.* * * * * * * * * * * * * * * * * * * z.      ",
"          p.p t.A.* * * * * * * * * * * * * * * * * * * <.      ",
"        B.C.D.K E.F.* * * * * * * * * * * * * * * * * * * G.    ",
"        l.K K K K H.I.J.K.* * * * * * * * * * * * * * * *       ",
"        L.K K K K K K K U M.N.* * * * * * * * * * * * * j.      ",
"        O.K K K K K K K K K P.Q.* * * * * * * * * * * * R.      ",
"        6.K K K K K K K K K K !.S.* * * * * * * * * * * T.      ",
"        U.K K K K K K K K K K K !.V.* * * * * * * * * W.        ",
"          L.K K K K K K K K K K K X.Y.* * * Z.`.g.A.*  +        ",
"            .+K K K K K K K K K K K E.<.* ++@+K K #+$+          ",
"              %+&+K K K K K K K K K K *+=+|.K K e.-+            ",
"                  ;+@+K K K K K K K K >+,+!.O.'+                "};
